#N canvas 716 184 450 300 10;
#X floatatom 97 164 5 0 0 0 - - pyata;
#X floatatom 100 100 5 0 0 0 - - -;
#X obj 101 44 inlet;
#X obj 139 163 outlet;
#X obj 203 78 cnv 15 100 60 empty empty empty 20 12 0 14 -233017 -66577
0;
#X connect 1 0 0 0;
#X connect 1 0 3 0;
#X connect 2 0 1 0;
#X coords 0 -1 1 1 32 17 1 100 100;
