#N canvas 575 90 416 252 10;
#X obj 72 48 loadbang;
#X msg 71 78 \; pd dsp 1;
#X msg 69 127 \; pd dsp 0;
#N canvas 0 63 1053 612 new 1;
#X obj 50 100 osc~ 410;
#X obj 100 100 osc~ 420;
#X obj 150 100 osc~ 430;
#X obj 200 100 osc~ 440;
#X obj 250 100 osc~ 450;
#X obj 300 100 osc~ 460;
#X obj 350 100 osc~ 470;
#X obj 400 100 osc~ 480;
#X obj 450 100 osc~ 490;
#X obj 500 100 osc~ 500;
#X obj 550 100 osc~ 510;
#X obj 600 100 osc~ 520;
#X obj 650 100 osc~ 530;
#X obj 700 100 osc~ 540;
#X obj 750 100 osc~ 550;
#X obj 800 100 osc~ 560;
#X obj 850 100 osc~ 570;
#X obj 900 100 osc~ 580;
#X obj 950 100 osc~ 590;
#X obj 50 500 dac~;
#X restore 201 32 pd new;
#X obj 252 179 netsend;
#X obj 271 132 r pyata;
#X msg 194 148 disconnect;
#X obj 394 103 bng 15 250 50 0 empty empty empty 17 7 0 10 -262144
-1 -1;
#X obj 265 32 netreceive 3000 0 old;
#X obj 252 64 loadbang;
#X msg 252 110 connect localhost 3001;
#X obj 252 86 del 6000;
#X floatatom 252 201 5 0 0 0 - - -;
#X msg 271 155 send \$1;
#X connect 0 0 1 0;
#X connect 4 0 12 0;
#X connect 5 0 13 0;
#X connect 6 0 4 0;
#X connect 9 0 11 0;
#X connect 9 0 6 0;
#X connect 10 0 4 0;
#X connect 11 0 7 0;
#X connect 11 0 10 0;
#X connect 13 0 4 0;
